<?xml version="1.0" standalone="no"?>
<!DOCTYPE svg PUBLIC "-//W3C//DTD SVG 20010904//EN"
 "http://www.w3.org/TR/2001/REC-SVG-20010904/DTD/svg10.dtd">
<svg version="1.0" xmlns="http://www.w3.org/2000/svg"
 width="260.000000pt" height="260.000000pt" viewBox="0 0 260.000000 260.000000"
 preserveAspectRatio="xMidYMid meet">
<metadata>
Created by potrace 1.14, written by Peter Selinger 2001-2017
</metadata>
<g transform="translate(0.000000,260.000000) scale(0.100000,-0.100000)"
fill="#000000" stroke="none">
<path d="M527 2435 c-30 -20 -41 -41 -201 -397 l-38 -86 -103 -4 c-93 -3 -106
-5 -129 -27 -37 -35 -49 -88 -33 -137 17 -47 51 -74 105 -81 23 -3 42 -9 42
-13 0 -5 -19 -47 -42 -95 l-41 -87 -1 -391 c0 -363 1 -394 18 -423 21 -35 64
-64 95 -64 20 0 21 -5 22 -102 1 -125 2 -135 35 -203 65 -138 231 -203 391
-154 51 16 76 32 118 72 73 73 97 138 99 277 l1 105 433 3 432 2 0 -97 c0
-151 31 -236 107 -301 117 -100 302 -103 420 -6 86 71 115 146 117 308 l1 88
44 17 c24 9 53 29 65 44 21 28 21 37 21 430 l-1 402 -42 89 c-23 49 -42 90
-42 92 0 2 12 4 26 4 37 0 91 28 113 59 13 18 18 41 17 75 -2 43 -6 53 -41 83
-38 32 -40 33 -134 33 l-96 0 -99 223 c-101 225 -115 250 -151 270 -14 9 -224
12 -759 12 -728 1 -740 0 -769 -20z m1426 -307 c20 -46 54 -123 78 -173 38
-82 94 -206 139 -312 l18 -41 -889 0 c-489 0 -889 4 -889 8 0 6 84 194 188
422 15 35 39 89 53 120 l24 58 621 0 622 0 35 -82z m-1203 -903 c86 -44 79
-191 -10 -222 -49 -17 -188 -14 -221 5 -78 45 -78 167 0 215 35 22 190 23 231
2z m1295 9 c51 -9 90 -62 88 -120 -2 -49 -18 -78 -60 -105 -37 -25 -179 -27
-228 -3 -81 38 -85 169 -7 216 27 16 147 24 207 12z"/>
</g>
</svg>
