<svg data-name="Layer 1" xmlns="http://www.w3.org/2000/svg" xmlns:xlink="http://www.w3.org/1999/xlink" width="918.14" height="765.54"><defs><linearGradient id="a" x1="397.74" y1="717.25" x2="397.74" y2="86.11" gradientUnits="userSpaceOnUse"><stop offset="0" stop-color="gray" stop-opacity=".25"/><stop offset=".54" stop-color="gray" stop-opacity=".12"/><stop offset="1" stop-color="gray" stop-opacity=".1"/></linearGradient><linearGradient id="b" x1="288.88" y1="378.44" x2="288.88" y2="209.65" xlink:href="#a"/><linearGradient id="c" x1="288.88" y1="328.29" x2="288.88" y2="223.1" xlink:href="#a"/><linearGradient id="e" x1="288.88" y1="594.94" x2="288.88" y2="426.14" xlink:href="#a"/><linearGradient id="f" x1="288.88" y1="544.79" x2="288.88" y2="439.6" xlink:href="#a"/><linearGradient id="h" x1="671.57" y1="760.34" x2="671.57" y2="129.2" gradientTransform="rotate(90 651.765 457.665)" xlink:href="#a"/><linearGradient id="i" x1="670.96" y1="553.63" x2="670.96" y2="387.28" gradientTransform="rotate(90 648.96 480.55)" xlink:href="#a"/><linearGradient id="j" x1="637.66" y1="754.12" x2="637.66" y2="601.05" xlink:href="#a"/><linearGradient id="k" x1="778.37" y1="673.86" x2="778.37" y2="569.13" xlink:href="#a"/><linearGradient id="l" x1="778.37" y1="774.41" x2="778.37" y2="713.66" xlink:href="#a"/><clipPath id="d" transform="translate(-140.93 -67.23)"><path data-name="&lt;Rectangle&gt;" fill="#fff" d="M354.51 291.55H505.11V393.07H354.51z"/></clipPath><clipPath id="g" transform="translate(-140.93 -67.23)"><path data-name="&lt;Rectangle&gt;" fill="#fff" d="M354.51 508.05H505.11V609.57H354.51z"/></clipPath></defs><path fill="url(#a)" d="M162.9 86.11H632.59V717.25H162.9z" opacity=".5"/><path fill="#f2f2f2" d="M169.02 94.67H624.03V703.79H169.02z"/><path fill="#e0e0e0" d="M204.49 120.36H361.05V125.25H204.49z"/><path fill="#727cf5" opacity=".7" d="M204.49 142.37H361.05V147.26H204.49z"/><path fill="#e0e0e0" d="M384.29 120.36H540.85V125.25H384.29zM408.75 259.8H565.31V264.69H408.75zM412.42 273.25H568.98V278.14H412.42zM419.76 286.7H576.3199999999999V291.59H419.76zM408.75 476.29H565.31V481.18H408.75zM412.42 489.75H568.98V494.64H412.42zM419.76 503.2H576.3199999999999V508.09H419.76z"/><path fill="url(#b)" d="M205.71 209.65H372.06V378.44H205.71z" opacity=".5"/><path fill="#f5f5f5" d="M206.76 213.32H370.48V374.77H206.76z"/><path fill="url(#c)" d="M212.53 223.1H365.23V328.28999999999996H212.53z" opacity=".5"/><path data-name="&lt;Rectangle&gt;" fill="#fff" d="M213.58 224.32H364.18V325.84H213.58z"/><g clip-path="url(#d)" fill="#727cf5"><path opacity=".4" d="M200.82 322.18 238.74 263.46 254.64 289.15 288.88 253.68 318.24 289.15 343.93 236.56 409.98 341.75 195.93 334.41 200.82 322.18zM230.17 227.99A11.01 11.01 0 1 0 230.17 250.01 11.01 11.01 0 1 0 230.17 227.99z"/></g><path fill="url(#e)" d="M205.71 426.14H372.06V594.93H205.71z" opacity=".5"/><path fill="#f5f5f5" d="M206.76 429.81H370.48V591.26H206.76z"/><path fill="url(#f)" d="M212.53 439.6H365.23V544.79H212.53z" opacity=".5"/><path data-name="&lt;Rectangle&gt;" fill="#fff" d="M213.58 440.82H364.18V542.34H213.58z"/><g clip-path="url(#g)" fill="#bdbdbd"><path opacity=".4" d="M200.82 538.67 238.74 479.96 254.64 505.65 288.88 470.18 318.24 505.65 343.93 453.05 409.98 558.24 195.93 550.9 200.82 538.67zM230.17 444.49A11.01 11.01 0 1 0 230.17 466.51 11.01 11.01 0 1 0 230.17 444.49z"/></g><path transform="rotate(-78.76 553.216 529.704)" fill="url(#h)" d="M349.09 242.63H980.23V712.3199999999999H349.09z" opacity=".5"/><path transform="rotate(-78.76 552.486 527.066)" fill="#fff" d="M359.37 247.33H968.49V702.34H359.37z"/><path transform="rotate(11.24 956.248 -549.98)" fill="#e0e0e0" d="M523.5 197.22H846.4100000000001V202.10999999999999H523.5z"/><path transform="rotate(11.24 866.056 -96.407)" fill="#e0e0e0" d="M433.36 650.7H756.27V655.59H433.36z"/><path transform="rotate(11.24 824.563 -75.958)" fill="#e0e0e0" d="M428.58 671.14H678.1V676.03H428.58z"/><path transform="rotate(11.24 742.308 -63.606)" fill="#727cf5" opacity=".7" d="M424.6 683.47H517.5600000000001V688.36H424.6z"/><path transform="rotate(11.24 871.535 -538.103)" fill="#727cf5" opacity=".7" d="M519.57 209.08H681.02V213.97H519.57z"/><path transform="rotate(11.24 929.672 -497.856)" fill="#e0e0e0" d="M512.84 249.31H803.95V254.2H512.84z"/><path transform="rotate(11.24 816.177 -491.716)" fill="#3ad29f" opacity=".7" d="M509.47 255.44H580.4100000000001V260.33H509.47z"/><path transform="rotate(11.24 934.279 -439.567)" fill="#e0e0e0" d="M501.56 307.59H824.47V312.47999999999996H501.56z"/><path transform="rotate(-78.76 547.604 554.776)" fill="url(#i)" d="M575.87 357.6H742.22V647.48H575.87z" opacity=".5"/><path transform="rotate(11.24 930.44 -247.623)" fill="#fff" d="M516.06 420.61H802.28V583.29H516.06z"/><path transform="rotate(11.24 928.784 -411.99)" fill="#e0e0e0" d="M496.08 335.18H818.99V340.07H496.08z"/><path transform="rotate(11.24 836.828 -266.218)" fill="#727cf5" d="M547.86 424.02H583.33V542.66H547.86z"/><path transform="rotate(11.24 895.395 -234.632)" fill="#3ad29f" d="M606.43 475.19H641.9V554.69H606.43z"/><path transform="rotate(11.24 954.258 -204.204)" fill="#f55f44" d="M665.23 523.93H700.7V566.74H665.23z"/><path transform="rotate(11.24 1020.917 -213.432)" fill="#fdd835" d="M731.91 492.72H767.38V579.5600000000001H731.91z"/><g opacity=".5" fill="#47e6b1"><path d="M128.65 645.09H132.32V665.88H128.65z"/><path transform="rotate(90 234.565 618.635)" d="M269.58 712.31H273.25V733.0999999999999H269.58z"/></g><path d="M699.44,75.56a4.49,4.49,0,0,1-2.5-5.43,2.16,2.16,0,0,0,.1-.5h0a2.25,2.25,0,0,0-4-1.49h0a2.16,2.16,0,0,0-.25.44,4.49,4.49,0,0,1-5.43,2.5,2.16,2.16,0,0,0-.5-.1h0a2.25,2.25,0,0,0-1.49,4h0a2.16,2.16,0,0,0,.44.25,4.49,4.49,0,0,1,2.5,5.43,2.16,2.16,0,0,0-.1.5h0a2.25,2.25,0,0,0,4,1.49h0a2.16,2.16,0,0,0,.25-.44,4.49,4.49,0,0,1,5.43-2.5,2.16,2.16,0,0,0,.5.1h0a2.25,2.25,0,0,0,1.49-4h0A2.16,2.16,0,0,0,699.44,75.56Z" transform="translate(-140.93 -67.23)" fill="#4d8af0" opacity=".5"/><path d="M286.33 179.4a4.49 4.49 0 0 1-2.5-5.43 2.16 2.16 0 0 0 .1-.5h0a2.25 2.25 0 0 0-4-1.49h0a2.16 2.16 0 0 0-.25.44 4.49 4.49 0 0 1-5.43 2.5 2.16 2.16 0 0 0-.5-.1h0a2.25 2.25 0 0 0-1.49 4h0a2.16 2.16 0 0 0 .44.25 4.49 4.49 0 0 1 2.5 5.43 2.16 2.16 0 0 0-.1.5h0a2.25 2.25 0 0 0 4 1.49h0a2.16 2.16 0 0 0 .25-.44 4.49 4.49 0 0 1 5.43-2.5 2.16 2.16 0 0 0 .5.1h0a2.25 2.25 0 0 0 1.49-4h0A2.16 2.16 0 0 0 286.33 179.4ZM253.63 484.46a4.49 4.49 0 0 1-2.5-5.43 2.16 2.16 0 0 0 .1-.5h0a2.25 2.25 0 0 0-4-1.49h0a2.16 2.16 0 0 0-.25.44 4.49 4.49 0 0 1-5.43 2.5 2.16 2.16 0 0 0-.5-.1h0a2.25 2.25 0 0 0-1.49 4h0a2.16 2.16 0 0 0 .44.25 4.49 4.49 0 0 1 2.5 5.43 2.16 2.16 0 0 0-.1.5h0a2.25 2.25 0 0 0 4 1.49h0a2.16 2.16 0 0 0 .25-.44 4.49 4.49 0 0 1 5.43-2.5 2.16 2.16 0 0 0 .5.1h0a2.25 2.25 0 0 0 1.49-4h0A2.16 2.16 0 0 0 253.63 484.46Z" transform="translate(-140.93 -67.23)" fill="#fdd835" opacity=".5"/><path fill="#f55f44" opacity=".5" d="M337.81 21.28A7.34 7.34 0 1 0 337.81 35.96 7.34 7.34 0 1 0 337.81 21.28zM7.34 310.12A7.34 7.34 0 1 0 7.34 324.79999999999995 7.34 7.34 0 1 0 7.34 310.12zM863.76 113.02A7.34 7.34 0 1 0 863.76 127.7 7.34 7.34 0 1 0 863.76 113.02z"/><path fill="#4d8af0" opacity=".5" d="M822.17 331.96000000000004A7.34 7.34 0 1 0 822.17 346.64 7.34 7.34 0 1 0 822.17 331.96000000000004z"/><path fill="#47e6b1" opacity=".5" d="M37.68 137.88A7.34 7.34 0 1 0 37.68 152.56 7.34 7.34 0 1 0 37.68 137.88zM853.29 640A7.34 7.34 0 1 0 853.29 654.6800000000001 7.34 7.34 0 1 0 853.29 640zM910.8 423.63000000000005A7.34 7.34 0 1 0 910.8 438.31 7.34 7.34 0 1 0 910.8 423.63000000000005z"/><path fill="url(#j)" d="M544.42 601.05H730.9V754.1199999999999H544.42z"/><path d="M723.82,639a54.55,54.55,0,0,1,109.1,0v34.91h15.27V639a69.82,69.82,0,0,0-139.65,0v34.91h15.27Z" transform="translate(-140.93 -67.23)" fill="url(#k)"/><path d="M726,638.25a52.37,52.37,0,1,1,104.74,0v33.52H845.4V638.25a67,67,0,0,0-134.06,0v33.52H726Z" transform="translate(-140.93 -67.23)" fill="#f5f5f5"/><path fill="#727cf5" d="M546.32 602.45H728.5600000000001V751.1800000000001H546.32z"/><path fill="#f5f5f5" d="M546.32 602.45H728.5600000000001V751.1800000000001H546.32z"/><path fill="#727cf5" d="M546.32 631.77H728.5600000000001V721.8399999999999H546.32z"/><path d="M791.73,727a13.36,13.36,0,1,0-23.08,9.15v28.51a9.72,9.72,0,0,0,19.44,0V736.18A13.3,13.3,0,0,0,791.73,727Z" transform="translate(-140.93 -67.23)" fill="url(#l)"/><path d="M789.89,729.38a11.52,11.52,0,1,0-19.9,7.89v24.58a8.38,8.38,0,1,0,16.76,0V737.27A11.47,11.47,0,0,0,789.89,729.38Z" transform="translate(-140.93 -67.23)" opacity=".2"/></svg>